<svg width="276" height="50" viewBox="0 0 276 50" fill="none" xmlns="http://www.w3.org/2000/svg">
  <path
    d="M188.215 23.3007C188.925 23.5198 189.564 23.812 190.203 24.1772C192.05 25.1998 193.542 26.5876 194.536 28.4137C195.956 30.9702 196.525 33.8189 196.17 36.8136C195.885 39.224 195.175 41.4884 193.897 43.5336C191.908 46.8205 188.996 48.7196 185.303 49.1579C182.391 49.5231 179.408 49.5231 176.496 49.5231C171.24 49.5231 166.055 49.5231 160.799 49.5231C160.16 49.5231 159.947 49.377 159.947 48.7196C159.947 32.7232 159.947 16.7268 159.947 0.730429C159.947 0.146086 160.089 0 160.657 0C167.192 0 173.797 0 180.331 0.0730429C182.746 0.0730429 185.161 0.292172 187.434 1.31477C188.641 1.89912 189.706 2.62954 190.559 3.5791C194.039 7.45038 194.962 11.906 193.258 16.946C192.334 19.5755 190.772 21.4746 188.499 22.9355C188.428 23.0085 188.357 23.0816 188.286 23.0816C188.286 23.1546 188.286 23.1546 188.215 23.3007ZM175.359 41.1962C175.359 41.1232 175.359 41.1232 175.359 41.1962C176.638 41.1962 177.916 41.1962 179.266 41.1962C180.615 41.1962 182.036 41.1962 183.385 40.7579C184.522 40.3197 185.587 39.7353 186.297 38.5667C187.291 36.9597 187.505 35.1336 187.22 33.3076C186.936 31.6276 186.226 30.2398 184.735 29.2902C183.598 28.5598 182.391 28.2676 181.041 28.1946C177.135 27.9754 173.229 28.1215 169.322 28.0485C168.825 28.0485 168.825 28.3406 168.825 28.7059C168.825 32.6502 168.825 36.5945 168.825 40.5388C168.825 41.1232 168.967 41.2692 169.535 41.2692C171.382 41.1232 173.371 41.1962 175.359 41.1962ZM175.075 8.32689C173.158 8.32689 171.311 8.32689 169.393 8.32689C169.038 8.32689 168.754 8.39993 168.754 8.91123C168.754 12.2712 168.754 15.7042 168.754 19.0642C168.754 19.6485 169.038 19.6485 169.464 19.6485C171.879 19.6485 174.294 19.6485 176.709 19.6485C177.987 19.6485 179.266 19.5755 180.615 19.5025C181.396 19.4294 182.178 19.3564 182.888 18.9181C184.379 18.0416 185.232 16.7999 185.587 15.0468C186.297 11.4677 184.308 8.76515 180.828 8.47298C178.911 8.32689 176.993 8.39993 175.075 8.32689Z"
    fill="#1B74B6" />
  <path
    d="M239.641 24.6885C239.641 16.7268 239.641 8.76515 239.641 0.803472C239.641 0.219129 239.783 0 240.351 0C246.814 0 253.277 0 259.74 0.0730429C261.8 0.0730429 263.931 0.219129 265.991 0.949558C268.903 1.97216 270.962 3.94432 272.383 6.71995C274.301 10.5912 274.229 14.5355 272.383 18.4068C271.46 20.3059 270.181 21.9859 268.192 22.8624C268.05 22.9355 267.979 23.0816 267.979 23.1546C267.979 23.4468 268.192 23.4468 268.334 23.4468C270.82 24.2502 272.809 25.9302 274.158 28.1946C276.005 31.3354 276.431 34.7684 275.579 38.3475C275.153 40.2466 274.514 41.9997 273.519 43.6066C272.17 45.7979 270.323 47.4048 267.908 48.3544C266.062 49.0118 264.144 49.1579 262.226 49.2309C254.911 49.5231 247.595 49.304 240.209 49.377C239.569 49.377 239.641 49.0118 239.641 48.5735C239.641 40.6849 239.641 32.7232 239.641 24.6885ZM248.377 34.5493C248.377 36.5215 248.377 38.5667 248.377 40.5388C248.377 40.9771 248.448 41.1962 248.945 41.1232C253.135 41.0501 257.255 41.2692 261.445 40.904C263.434 40.7579 265.209 39.8814 266.062 37.9093C266.772 36.3754 266.843 34.6223 266.559 32.9423C266.133 30.3858 264.57 28.925 262.155 28.2676C261.303 28.0485 260.38 27.9754 259.456 27.9754C255.976 27.9754 252.496 27.9754 249.016 27.9024C248.448 27.9024 248.306 28.1215 248.306 28.6328C248.377 30.678 248.377 32.6502 248.377 34.5493ZM254.556 8.39993V8.32689C252.709 8.32689 250.862 8.32689 249.016 8.32689C248.59 8.32689 248.306 8.32689 248.377 8.91123C248.377 12.2712 248.377 15.7042 248.377 19.0642C248.377 19.5025 248.519 19.6485 248.945 19.6485C252.638 19.5755 256.402 19.7946 260.096 19.5025C260.877 19.4294 261.729 19.3564 262.439 18.9181C264.783 17.5303 265.849 14.9008 265.138 12.2712C264.712 10.7373 264.002 9.42253 262.439 8.83819C261.587 8.54602 260.735 8.39993 259.812 8.39993C258.036 8.39993 256.331 8.39993 254.556 8.39993Z"
    fill="#1B74B6" />
  <path
    d="M197.424 0.292186C197.637 1.43722e-05 197.921 0.0730573 198.134 0.0730573C209.143 0.0730573 220.081 0.0730573 231.089 0.0730573C231.658 0.0730573 231.871 0.219143 231.871 0.803486C231.8 3.14086 231.871 5.40519 231.871 7.74256C231.871 8.39995 231.658 8.54604 231.089 8.54604C227.325 8.54604 223.632 8.54604 219.868 8.54604C219.086 8.54604 218.944 8.76516 218.944 9.49559C218.944 22.4972 218.944 35.4989 218.944 48.5736C218.944 49.5962 218.944 49.5962 218.021 49.5962C215.464 49.5962 212.836 49.5962 210.279 49.5231C210.279 41.5614 210.279 33.5998 210.279 25.6381C210.279 20.1599 210.279 14.6816 210.279 9.20342C210.279 8.76516 210.279 8.39995 209.711 8.47299C205.947 8.61908 202.182 8.47299 198.418 8.54604C197.779 8.54604 197.566 8.32691 197.566 7.66952C197.637 5.55128 197.566 3.35999 197.566 1.24174C197.566 0.803486 197.566 0.511315 197.424 0.292186Z"
    fill="#1B74B6" />
  <path
    d="M87.2909 11.7601C87.575 18.1878 82.1061 23.3008 75.998 23.2278C69.7478 23.2278 64.7051 17.8226 64.6341 11.8331C64.492 5.55141 69.9609 0.0731871 75.998 0.14623C82.2482 0.14623 87.646 5.40532 87.2909 11.7601ZM81.68 13.5861C81.68 11.7601 81.68 11.7601 80.6856 10.4453C80.3305 10.007 79.9043 9.71485 79.4782 9.27659C78.1998 7.88878 77.2764 6.28183 76.2821 4.67489C76.069 4.30968 75.927 4.30968 75.6429 4.67489C75.2877 5.18619 75.0747 5.84358 74.6485 6.35488C73.8673 7.30444 73.2991 8.54617 72.3757 9.34964C71.7365 9.93398 71.1683 10.5183 70.8132 11.3218C70.1029 12.7827 70.174 15.4122 71.2393 16.6539C72.0206 17.6035 72.8019 18.407 74.0803 18.7722C76.2111 19.3565 78.1287 19.2104 79.8333 17.5304C81.0407 16.3618 81.822 15.12 81.68 13.5861Z"
    fill="#76CAD2" />
  <path
    d="M108.313 23.2276C101.85 23.1545 96.878 17.9685 96.949 11.5407C97.02 5.33204 101.85 0.145996 108.455 0.145996C114.563 0.145996 119.748 5.47813 119.677 11.9059C119.535 17.9685 114.492 23.3006 108.313 23.2276ZM103.554 14.0242C104.194 14.0242 104.833 14.0242 105.472 14.0242C105.969 14.0242 106.111 14.1702 106.111 14.6815C106.111 15.9233 106.111 17.165 106.111 18.4798C106.111 19.0641 106.253 19.2832 106.821 19.2832C107.887 19.2102 108.952 19.2832 110.089 19.2832C110.586 19.2832 110.799 19.1372 110.728 18.6259C110.728 17.3841 110.728 16.1424 110.728 14.9007C110.728 14.3163 110.87 14.0242 111.509 14.0972C112.645 14.1702 113.782 14.0972 114.989 14.0972C115.486 14.0972 115.699 13.9511 115.628 13.4398C115.628 12.4902 115.557 11.4676 115.628 10.5181C115.699 9.78766 115.557 9.42245 114.776 9.56853C114.421 9.64158 114.066 9.56853 113.711 9.56853C112.93 9.64158 112.148 9.56853 111.367 9.56853C110.941 9.56853 110.799 9.34941 110.799 8.8381C110.799 7.52333 110.799 6.2816 110.799 4.96683C110.799 4.38249 110.657 4.2364 110.089 4.2364C108.952 4.30944 107.887 4.2364 106.75 4.2364C106.253 4.2364 106.111 4.38249 106.111 4.89379C106.111 6.20856 106.111 7.52333 106.111 8.8381C106.111 9.42245 105.898 9.64158 105.33 9.56853C104.194 9.49549 102.986 9.64158 101.85 9.49549C101.139 9.42245 100.926 9.64158 100.926 10.372C100.926 11.3946 100.926 12.4172 100.926 13.3668C100.926 13.9511 101.139 14.1702 101.708 14.0972C102.276 14.0242 102.915 14.0242 103.554 14.0242Z"
    fill="#76CAD2" />
  <path
    d="M43.6799 0.14627C50.0721 0.0732272 55.0438 5.25927 55.0438 11.614C55.0438 18.1879 50.0721 23.2278 43.6799 23.2278C37.2877 23.2278 32.458 18.1879 32.458 11.687C32.458 5.25927 37.1456 0.14627 43.6799 0.14627ZM46.6629 4.23667C44.035 4.01754 41.6912 6.72013 41.6912 9.0575C41.6912 11.687 43.964 14.0244 46.5209 14.0244C49.3619 14.0244 51.5636 11.8331 51.5636 9.20359C51.5636 6.72013 49.3619 4.16363 46.6629 4.23667ZM37.1456 14.974C37.1456 15.4122 37.1456 15.8505 37.2167 16.2157C37.7138 17.9687 39.4894 19.2835 41.6202 19.0644C43.6799 18.8453 45.0294 16.8001 45.1004 15.3392C45.1004 14.9009 45.0294 14.6818 44.6032 14.4627C43.3248 13.8053 42.0463 13.0018 41.4781 11.4679C41.3361 11.1027 41.052 10.9566 40.6969 11.0297C38.6371 11.1757 37.0036 12.8557 37.1456 14.974Z"
    fill="#76CAD2" />
  <path
    d="M11.2226 23.2276C4.83043 23.0815 0.0717868 18.1145 0.000762172 11.7598C-0.0702624 5.40509 4.83043 0.145996 11.4357 0.145996C17.6149 0.145996 22.7997 5.47813 22.6576 11.9059C22.5866 18.1145 17.4728 23.3006 11.2226 23.2276ZM9.87318 17.3841C9.87318 17.0189 9.87318 16.7267 9.87318 16.3615C9.9442 15.485 10.3704 14.9737 11.0806 14.9007C11.9329 14.8276 12.288 15.1198 12.5011 16.0693C12.6431 16.7267 12.5011 17.3841 12.5721 18.0415C12.5721 18.4067 12.6431 18.7719 12.9983 18.918C13.4244 19.0641 13.7085 18.9911 14.0636 18.6989C14.9869 17.8224 15.3421 16.6537 15.4841 15.412C15.6972 13.805 15.9813 12.2711 16.9756 10.8833C18.1831 9.20332 18.3961 7.37724 17.1887 5.55117C16.1944 4.01727 14.6318 3.65206 13.1403 4.7477C12.8562 4.89378 12.6431 5.18596 12.4301 5.40509C11.4357 6.2816 10.6544 6.13551 9.80215 5.18596C9.30498 4.52857 8.59474 4.16336 7.81347 4.2364C6.7481 4.2364 5.96683 4.82074 5.39863 5.84334C4.68838 7.15811 4.54634 8.47289 5.18556 9.78766C5.54068 10.5181 5.8958 11.2485 6.32195 11.9059C7.17424 13.2207 7.0322 14.7546 7.38732 16.2154C7.67142 17.165 7.74244 18.3337 8.80781 18.918C9.44703 19.2832 9.80215 19.0641 9.87318 18.3337C9.87318 18.0415 9.87318 17.6763 9.87318 17.3841Z"
    fill="#76CAD2" />
  <path
    d="M140.629 23.2276C134.45 23.1545 129.407 18.1876 129.336 11.7598C129.265 5.33204 134.308 0.145996 140.558 0.145996C146.951 0.145996 151.993 5.18596 151.993 11.6137C151.993 18.1876 146.951 23.1545 140.629 23.2276ZM132.959 9.05723C132.888 11.1024 133.74 12.9285 134.663 14.5354C135.8 16.5807 137.291 18.3337 139.422 19.3563C139.99 19.6485 140.558 19.7945 141.127 19.5754C142.618 19.0641 143.825 18.1146 144.891 16.9459C146.737 14.8276 147.874 12.4172 148.3 9.64157C148.584 8.03463 147.59 6.06247 146.169 5.33204C144.394 4.38249 142.973 5.03987 141.553 6.13551C140.7 6.7929 140.416 6.7929 139.706 6.13551C138.357 4.96683 136.865 4.45553 135.302 5.33204C133.74 5.98943 133.101 7.37724 132.959 9.05723Z"
    fill="#76CAD2" />
  <path
    d="M40.9119 34.8417C40.7698 35.353 40.7698 35.7182 40.7698 36.0834C40.7698 40.1008 40.7698 44.1182 40.7698 48.2086C40.7698 48.8659 40.6278 49.0851 39.9886 49.012C39.4204 48.939 38.8522 48.939 38.355 49.012C37.7158 49.0851 37.5737 48.8659 37.5737 48.2086C37.5737 44.1182 37.5737 40.1008 37.5737 36.0104C37.5737 34.6956 37.5737 33.3808 37.5737 31.993C37.5737 31.5548 37.7158 31.4087 38.1419 31.4087C39.5624 31.4087 40.9829 31.4087 42.4744 31.4087C42.9006 31.4087 43.0426 31.5548 43.1136 31.993C43.6818 35.1339 44.3211 38.2017 44.9603 41.2695C45.0313 41.5617 45.1023 41.9269 45.2444 42.219C45.5995 41.1964 45.5995 40.1008 45.8836 39.0782C46.4518 36.6678 46.949 34.2574 47.4461 31.8469C47.5172 31.4087 47.7302 31.4087 48.0854 31.4087C49.4348 31.4087 50.7133 31.4087 52.0627 31.4087C52.6309 31.4087 52.773 31.5548 52.773 32.1391C52.773 36.8869 52.773 41.6347 52.773 46.3825C52.773 47.0399 52.773 47.6973 52.773 48.2816C52.773 48.7929 52.5599 48.939 52.1338 48.939C51.6366 48.939 51.0684 48.8659 50.5712 48.939C49.861 49.012 49.7189 48.7199 49.7189 48.0625C49.7189 43.826 49.7189 39.6625 49.7189 35.4261C49.7189 35.1339 49.79 34.9148 49.5769 34.5495C49.2218 35.2069 49.2218 35.7913 49.0797 36.3756C48.2274 40.1738 47.4461 44.0451 46.6649 47.8433C46.4518 48.939 46.4518 48.939 45.3864 48.939C43.8949 48.939 43.8239 48.939 43.6108 47.4051C43.1136 44.1182 42.2614 40.9043 41.5511 37.6173C41.4091 36.96 41.338 36.3026 41.267 35.6452C41.267 35.4261 41.267 35.1339 40.9119 34.8417Z"
    fill="#1B74B6" />
  <path
    d="M130.33 31.481C130.614 31.7001 130.543 31.9923 130.543 32.2114C130.472 35.7905 130.685 39.3696 130.33 42.8757C130.33 42.9487 130.33 43.0948 130.33 43.2409C130.685 42.9487 130.685 42.5104 130.898 42.1452C131.75 40.3922 132.176 38.5661 132.887 36.8131C133.597 35.0601 134.236 33.307 134.875 31.554C136.012 31.554 137.219 31.627 138.355 31.481C138.64 31.627 138.498 31.9192 138.498 32.1383C138.498 37.4705 138.498 42.8757 138.498 48.2078C138.498 48.7921 138.355 49.0113 137.787 49.0113C137.219 49.0113 136.651 49.0113 136.083 49.0113C135.515 49.0843 135.372 48.8652 135.372 48.2808C135.443 45.213 135.443 42.0722 135.443 39.0044C135.443 38.7122 135.657 38.1279 135.301 38.0548C134.946 37.9818 134.946 38.5661 134.804 38.8583C134.023 41.0496 133.171 43.1678 132.318 45.3591C131.963 46.3087 131.608 47.3313 131.253 48.3539C131.111 48.7921 130.898 49.0113 130.33 49.0113C129.548 48.9382 128.767 48.9382 127.986 49.0113C127.489 49.0113 127.347 48.8652 127.347 48.3539C127.347 47.3313 127.347 46.2356 127.347 45.213C127.489 44.9209 127.489 44.7017 127.347 44.4096C127.347 42.0722 127.347 39.7348 127.347 37.3974C127.489 36.2287 127.489 34.987 127.347 33.8183C127.347 33.0879 127.347 32.3575 127.347 31.627C128.412 31.554 129.406 31.554 130.33 31.481Z"
    fill="#1B74B6" />
  <path
    d="M150.998 40.1736C150.998 42.8032 150.998 45.5058 150.998 48.1353C150.998 48.7197 150.856 49.0118 150.216 48.9388C149.506 48.8657 148.796 48.9388 148.157 48.9388C147.731 48.9388 147.517 48.7927 147.517 48.2814C147.517 46.4553 147.517 44.6293 147.517 42.8032C147.517 42.438 147.731 41.9267 147.162 41.8536C146.594 41.7806 146.097 41.6345 145.742 42.438C145.032 44.3371 144.179 46.2362 143.398 48.1353C143.185 48.7197 142.901 48.9388 142.262 48.8657C141.622 48.7927 140.983 48.8657 140.344 48.8657C139.492 48.8657 139.492 48.8657 139.847 47.9892C140.699 46.0171 141.551 44.0449 142.475 42.1458C142.617 41.7806 142.759 41.4884 142.333 41.1962C140.202 39.7354 139.918 37.5441 140.273 35.1337C140.557 32.7963 142.617 31.3354 144.605 31.3354C146.523 31.3354 148.512 31.3354 150.429 31.3354C150.998 31.3354 150.927 31.6276 150.927 32.0659C150.998 34.8415 150.998 37.5441 150.998 40.1736ZM147.588 36.8137C147.588 36.1563 147.588 35.4258 147.588 34.7685C147.588 34.4763 147.517 34.2572 147.162 34.2572C146.452 34.2572 145.671 34.1841 144.961 34.4032C144.534 34.4763 144.179 34.6954 143.966 34.9876C143.327 35.8641 143.54 37.8363 144.25 38.6397C145.174 39.5893 146.31 39.2971 147.375 39.2971C147.659 39.2971 147.588 39.005 147.588 38.7858C147.588 38.1284 147.588 37.4711 147.588 36.8137Z"
    fill="#1B74B6" />
  <path
    d="M102.416 40.2468C102.416 42.9493 102.416 45.5789 102.416 48.2815C102.416 48.8658 102.274 49.0849 101.706 49.0119C101.067 48.9389 100.427 48.9389 99.7882 49.0119C99.1489 49.0849 99.0069 48.7928 99.0069 48.2084C99.0069 45.725 99.0069 43.2415 99.0069 40.7581C99.0069 38.8589 99.0069 36.9598 99.0069 35.0607C99.0069 34.4764 98.7938 34.2572 98.2966 34.3303C97.6574 34.4033 96.9472 34.3303 96.308 34.3303C95.8108 34.3303 95.6687 34.4764 95.6687 34.9877C95.6687 37.0329 95.6687 39.1511 95.6687 41.1963C95.6687 42.8763 95.5977 44.5563 95.1716 46.2363C94.9585 47.0397 94.5324 47.7702 94.1772 48.5006C93.9642 48.9389 93.396 49.0119 92.9698 49.158C92.1175 49.5232 91.1232 49.5232 90.2709 49.158C89.4186 48.7197 89.9868 47.7702 89.9158 47.0397C89.8447 46.5284 90.2709 46.7476 90.555 46.7476C91.5493 46.8206 92.0465 46.4554 92.0465 45.3598C92.1175 43.2415 92.2596 41.1233 92.2596 38.932C92.3306 36.6677 92.2596 34.4033 92.2596 32.139C92.2596 31.6277 92.3306 31.3355 92.9698 31.4086C95.8818 31.4086 98.7938 31.4086 101.706 31.4086C102.274 31.4086 102.416 31.5547 102.416 32.139C102.416 34.8416 102.416 37.5442 102.416 40.2468Z"
    fill="#1B74B6" />
  <path
    d="M88.9233 40.612C88.8523 42.292 89.0654 43.8989 88.7102 45.5789C88.4972 46.7476 87.929 47.7702 87.0767 48.5737C86.4375 49.158 85.5141 49.3041 84.5908 49.4502C83.0993 49.6693 81.5368 49.4502 80.1873 48.8658C79.193 48.4276 78.6958 47.405 78.2696 46.4554C77.9145 45.6519 77.7725 44.7754 77.7725 43.972C77.7725 41.3424 77.6304 38.7859 77.8435 36.1564C78.0566 33.3807 79.8322 31.5547 82.5311 31.3355C83.6675 31.2625 84.8039 31.2625 85.9403 31.7007C87.5739 32.3581 88.2841 33.7459 88.6392 35.3529C89.0654 37.0329 88.8523 38.8589 88.9233 40.612ZM81.2527 40.1007C81.2527 41.7076 81.1816 43.0224 81.2527 44.2641C81.3237 45.2137 81.4657 46.2363 82.5311 46.6015C84.0226 47.1128 85.4431 46.2363 85.5852 44.6293C85.7272 43.0954 85.6562 41.5615 85.6562 40.1007C85.6562 38.7859 85.7272 37.4711 85.5852 36.2294C85.4431 35.2068 85.017 34.4764 84.0226 34.1112C82.8862 33.7459 81.6788 34.4033 81.3947 35.572C81.1106 37.1059 81.3947 38.7859 81.2527 40.1007Z"
    fill="#1B74B6" />
  <path
    d="M24.7163 40.3927C24.7873 38.7857 24.6453 37.2518 24.8584 35.6449C25.2135 33.0884 26.847 31.4814 29.3329 31.1893C31.2506 30.9701 33.0262 31.1893 34.5887 32.504C34.7308 32.6501 34.9438 32.7962 35.0149 33.0153C35.441 34.4032 35.9382 35.864 35.9382 37.3979C35.8672 39.7353 35.9382 42.0727 35.8672 44.41C35.8672 45.5787 35.441 46.6013 35.0149 47.6239C34.5887 48.5735 33.6654 48.8656 32.8131 49.0848C30.8954 49.6691 28.9778 49.523 27.2022 48.6465C25.9237 47.9891 25.2135 46.6744 25.0004 45.2135C24.5743 43.6796 24.7873 42.0727 24.7163 40.3927ZM32.6711 40.4657C32.6711 39.1509 32.6711 37.8362 32.6711 36.5944C32.6711 35.791 32.529 34.9875 31.8188 34.4762C30.3273 33.4536 28.4806 34.0379 28.3386 36.0831C28.1255 39.0049 28.1255 41.8535 28.3386 44.7752C28.4096 45.5787 28.7647 46.4552 29.7591 46.6744C31.3216 47.1126 32.6 46.09 32.6711 44.337C32.6711 43.0222 32.6711 41.7805 32.6711 40.4657Z"
    fill="#1B74B6" />
  <path
    d="M115.202 40.393C115.202 41.8538 115.273 43.2416 115.202 44.7025C115.131 47.4051 113.711 49.012 111.154 49.3772C109.947 49.5233 108.739 49.4503 107.532 49.1581C106.324 48.7929 105.401 48.0625 104.904 46.9668C104.62 46.3825 104.478 45.7251 104.407 45.0677C104.194 41.9269 104.123 38.786 104.407 35.6452C104.478 34.8417 104.62 34.0382 105.117 33.4539C106.182 31.993 107.674 31.3356 109.378 31.2626C110.16 31.1895 111.012 31.3356 111.793 31.4817C113.569 31.8469 115.273 34.1843 115.202 35.8643C115.131 37.3252 115.202 38.8591 115.202 40.393ZM107.674 40.393C107.674 41.7808 107.674 43.1686 107.674 44.5564C107.745 45.7981 108.739 46.7477 109.876 46.7477C111.154 46.7477 111.935 45.7251 112.006 44.5564C112.148 41.7808 112.148 39.0051 112.006 36.2295C111.935 35.28 111.651 34.4034 110.657 33.9652C109.236 33.4539 107.745 34.2574 107.674 36.2295C107.603 37.6904 107.674 39.0782 107.674 40.393Z"
    fill="#1B74B6" />
  <path
    d="M64.278 48.939C63.7098 48.939 62.9995 49.1581 62.5734 48.8659C62.0762 48.5738 62.3603 47.7703 62.2893 47.186C62.0762 46.4555 62.0052 45.7251 61.8631 44.9216C61.7921 44.5564 61.579 44.4103 61.2239 44.4103C60.4426 44.4103 59.6614 44.4103 58.9511 44.4103C58.525 44.4103 58.3119 44.5564 58.2409 44.9947C57.9568 46.0903 57.6727 47.259 57.4596 48.3546C57.3886 48.7929 57.1755 48.939 56.7494 48.939C55.9681 48.939 55.1158 48.939 54.3345 48.939C53.9794 48.939 53.8374 48.939 53.9084 48.4277C54.4056 45.506 55.3999 42.6573 56.0391 39.8086C56.5363 37.6904 57.1045 35.5721 57.6017 33.4539C58.0988 31.4087 58.0988 31.4087 60.1585 31.4087C60.7978 31.4087 61.437 31.4087 62.0052 31.4087C62.2893 31.4087 62.4313 31.4817 62.5024 31.7739C62.9285 34.7687 63.8518 37.6173 64.42 40.5391C64.9172 43.1686 65.5564 45.7981 66.1246 48.3546C66.1956 48.7929 66.0536 48.939 65.6985 48.8659C65.1303 49.012 64.7041 49.012 64.278 48.939ZM60.0875 34.4034C59.5903 36.7408 59.1642 39.0782 58.667 41.3425C58.596 41.7808 58.738 41.7808 59.0932 41.7808C59.6614 41.7808 60.2296 41.7808 60.7267 41.7808C61.1529 41.7808 61.2239 41.7077 61.2239 41.2695C61.0819 39.9547 60.9398 38.5669 60.6557 37.2521C60.4426 36.3026 60.5847 35.28 60.0875 34.4034Z"
    fill="#1B74B6" />
  <path
    d="M4.26108 40.32C4.26108 41.5618 4.26108 42.8035 4.26108 44.0452C4.26108 44.6296 4.33211 45.1409 4.54518 45.7252C4.90031 46.4556 5.4685 46.8939 6.24977 46.8209C7.17309 46.7478 7.59924 46.4556 7.81231 45.5061C8.02539 44.8487 8.09641 44.1183 8.02539 43.4609C8.02539 42.9496 8.09641 42.7305 8.66461 42.8035C9.37486 42.8765 10.0851 42.8035 10.7953 42.8035C11.0794 42.8035 11.2925 42.8035 11.2925 43.2418C11.2925 44.8487 11.0084 46.3826 10.0851 47.8435C9.44588 48.793 8.52256 49.1582 7.52822 49.3774C5.89465 49.7426 4.33211 49.5234 2.84059 48.72C1.4201 47.8435 0.993954 46.1635 0.993954 44.5565C0.922929 41.5618 0.78088 38.494 1.06498 35.4992C1.27805 32.7966 3.05367 31.4088 5.39748 31.1897C7.10207 31.0436 8.66461 31.1897 9.94305 32.5044C11.1505 33.7462 11.3635 35.2801 11.3635 36.887C11.3635 37.1792 11.1505 37.2522 10.9374 37.2522C10.1561 37.2522 9.37486 37.2522 8.59359 37.2522C8.16744 37.2522 8.09641 37.0331 8.09641 36.6679C8.09641 35.9375 7.95436 35.2801 7.74129 34.5496C7.67027 34.3305 7.59924 34.2575 7.38617 34.1114C5.61055 33.381 4.40313 34.1114 4.33211 36.0105C4.26108 37.5444 4.26108 38.9322 4.26108 40.32Z"
    fill="#1B74B6" />
  <path
    d="M19.7476 41.7077C19.7476 43.899 19.7476 46.1634 19.7476 48.3546C19.7476 48.8659 19.6056 49.0851 19.1084 49.012C18.3982 48.939 17.6879 48.939 17.0487 49.012C16.4805 49.0851 16.3384 48.8659 16.3384 48.2816C16.3384 43.9721 16.3384 39.7356 16.3384 35.4261C16.3384 34.2574 16.3384 34.2574 15.202 34.2574C14.4208 34.2574 13.6395 34.2574 12.8582 34.2574C12.4321 34.2574 12.29 34.1113 12.29 33.673C12.29 33.0887 12.29 32.5043 12.29 31.92C12.29 31.5548 12.3611 31.4087 12.7872 31.4087C16.3384 31.4087 19.8186 31.4087 23.3699 31.4087C23.725 31.4087 23.867 31.4817 23.867 31.8469C23.867 32.5043 23.867 33.0887 23.867 33.7461C23.867 34.1843 23.5829 34.1843 23.2989 34.1843C22.3755 34.1843 21.3812 34.1843 20.4579 34.1843C19.9607 34.1843 19.8186 34.3304 19.8186 34.8417C19.7476 37.2521 19.7476 39.4434 19.7476 41.7077Z"
    fill="#1B74B6" />
  <path
    d="M76.7767 31.5542C76.7767 32.2846 76.7767 33.0151 76.7767 33.6724C76.7767 34.1837 76.5636 34.2568 76.2085 34.2568C75.2852 34.2568 74.3618 34.2568 73.5095 34.2568C72.9413 34.2568 72.7993 34.4029 72.7993 34.9872C72.7993 39.3698 72.7993 43.7524 72.7993 48.1349C72.7993 48.7923 72.6572 49.0845 71.947 49.0115C71.3078 48.9384 70.6685 48.9384 70.1004 49.0115C69.5322 49.0845 69.3901 48.8654 69.3901 48.281C69.3901 43.8984 69.3901 39.5159 69.4611 35.1333C69.4611 34.4029 69.3191 34.1837 68.6088 34.2568C67.7565 34.3298 66.9042 34.2568 66.052 34.2568C65.5548 34.2568 65.3417 34.0377 65.4127 33.5994C65.4838 32.942 65.4838 32.2116 65.4838 31.5542C69.177 31.5542 72.9413 31.5542 76.7767 31.5542Z"
    fill="#1B74B6" />
  <path
    d="M117.12 40.2469C117.12 37.5443 117.12 34.9148 117.12 32.2122C117.12 31.7009 117.191 31.4087 117.83 31.4087C120.387 31.4087 122.944 31.4087 125.501 31.4087C126.069 31.4087 126.211 31.5548 126.211 32.1391C126.14 32.6504 126.14 33.0887 126.211 33.6C126.282 34.1113 126.069 34.2574 125.572 34.2574C124.081 34.2574 122.66 34.2574 121.169 34.2574C120.6 34.2574 120.458 34.4765 120.458 34.9878C120.458 39.3704 120.458 43.7529 120.458 48.1355C120.458 48.7929 120.316 49.012 119.677 48.939C119.038 48.8659 118.399 48.8659 117.83 48.939C117.262 49.012 117.12 48.7929 117.12 48.2086C117.12 45.6521 117.12 42.9495 117.12 40.2469Z"
    fill="#1B74B6" />
  <path
    d="M81.6791 13.5862C81.8922 15.1201 81.1109 16.4349 79.9035 17.5306C78.1989 19.1375 76.2813 19.3566 74.1505 18.7723C72.9431 18.4071 72.0908 17.6036 71.3095 16.654C70.2442 15.4123 70.1731 12.7828 70.8834 11.3219C71.3095 10.5184 71.8067 9.9341 72.4459 9.34976C73.3692 8.47324 73.9374 7.30455 74.7187 6.355C75.1449 5.8437 75.3579 5.18631 75.7131 4.67501C75.9972 4.3098 76.1392 4.38284 76.3523 4.67501C77.3466 6.28195 78.2699 7.8889 79.5484 9.27671C79.9035 9.71497 80.4007 10.0071 80.7558 10.4454C81.6081 11.7602 81.6791 11.7602 81.6791 13.5862Z"
    fill="#FAFCFC" />
  <path
    d="M103.554 14.0244C102.914 14.0244 102.275 14.0244 101.707 14.0244C101.139 14.0244 100.926 13.8783 100.926 13.2939C100.997 12.2713 100.926 11.2487 100.926 10.2992C100.926 9.49571 101.139 9.27658 101.849 9.42266C103.057 9.56875 104.193 9.42266 105.329 9.49571C105.898 9.49571 106.111 9.34962 106.111 8.76528C106.111 7.45051 106.111 6.13573 106.111 4.82096C106.111 4.30966 106.253 4.16357 106.75 4.16357C107.886 4.16357 108.952 4.16357 110.088 4.16357C110.585 4.16357 110.798 4.30966 110.798 4.894C110.798 6.20878 110.798 7.45051 110.798 8.76528C110.798 9.20354 110.94 9.49571 111.366 9.49571C112.148 9.49571 112.929 9.56875 113.71 9.49571C114.065 9.49571 114.42 9.56875 114.776 9.49571C115.557 9.42266 115.699 9.78788 115.628 10.4453C115.557 11.3948 115.628 12.4174 115.628 13.367C115.628 13.8783 115.486 14.0974 114.989 14.0244C113.852 14.0244 112.716 14.0244 111.508 14.0244C110.869 14.0244 110.727 14.2435 110.727 14.8278C110.727 16.0696 110.727 17.3113 110.727 18.553C110.727 19.0643 110.585 19.2104 110.088 19.2104C109.023 19.2104 107.957 19.2104 106.821 19.2104C106.253 19.2104 106.111 18.9913 106.111 18.4069C106.111 17.1652 106.111 15.9235 106.111 14.6087C106.111 14.0974 105.969 13.9513 105.471 13.9513C104.832 14.0244 104.193 14.0244 103.554 14.0244Z"
    fill="#FAFCFC" />
  <path
    d="M46.6642 4.23629C49.4341 4.09021 51.5649 6.71975 51.5649 9.20321C51.4938 11.8328 49.3631 14.024 46.5221 14.024C43.9652 14.024 41.7635 11.6867 41.6924 9.05712C41.6214 6.71975 44.0363 4.09021 46.6642 4.23629ZM45.2437 12.7093C45.5278 12.7093 45.5988 12.4901 45.6698 12.271C45.8829 11.3945 46.3801 10.591 46.7352 9.78755C47.1613 8.69191 47.8006 7.66931 48.0847 6.50062C48.0847 6.28149 48.2977 5.98932 48.0136 5.84324C47.6585 5.69715 47.5875 6.06237 47.5165 6.28149C47.3034 6.79279 47.0193 7.37714 46.8062 7.88844C46.238 9.27625 45.5988 10.591 45.0306 11.9788C44.8886 12.271 44.6755 12.6362 45.2437 12.7093Z"
    fill="#FAFCFC" />
  <path
    d="M37.1474 14.9736C36.9344 12.8554 38.6389 11.2484 40.6987 10.9562C41.0538 10.8832 41.3379 11.0293 41.4799 11.3945C42.0481 12.9284 43.2555 13.7319 44.605 14.3893C45.0312 14.6084 45.1732 14.9006 45.1022 15.2658C45.0312 16.7266 43.6817 18.7718 41.622 18.991C39.4912 19.2831 37.7156 17.8953 37.2185 16.1423C37.1474 15.8501 37.2185 15.4119 37.1474 14.9736ZM39.7043 12.3441C39.4202 12.4901 39.4912 12.7093 39.6333 13.0015C40.4146 14.4623 41.2669 15.8501 42.0481 17.311C42.1902 17.5301 42.2612 17.8223 42.5453 17.6762C42.9714 17.4571 42.6163 17.2379 42.4743 17.0188C42.1902 16.4345 41.764 15.8501 41.551 15.1927C41.1248 14.3162 40.6276 13.4397 40.1305 12.5632C40.0594 12.4902 39.9174 12.3441 39.7043 12.3441Z"
    fill="#FAFCFC" />
  <path
    d="M9.87269 17.3844C9.87269 17.6765 9.87269 17.9687 9.87269 18.2609C9.87269 18.9913 9.44654 19.2104 8.80732 18.8452C7.74195 18.2609 7.67093 17.1652 7.38683 16.1426C7.03171 14.6818 7.17376 13.1479 6.32146 11.8331C5.89532 11.1757 5.54019 10.4453 5.18507 9.71485C4.54585 8.47312 4.6879 7.15835 5.39814 5.84358C5.96634 4.82098 6.74761 4.23664 7.81298 4.16359C8.59425 4.16359 9.3045 4.45576 9.80167 5.11315C10.654 6.13575 11.4352 6.20879 12.4296 5.33228C12.6427 5.11315 12.8557 4.89402 13.1398 4.67489C14.5603 3.65229 16.1939 4.01751 17.1882 5.47836C18.3956 7.30444 18.1826 9.13051 16.9752 10.8105C15.9808 12.1983 15.6967 13.7322 15.4836 15.3392C15.3416 16.5809 14.9865 17.7496 14.0631 18.6261C13.779 18.9183 13.4239 19.0643 12.9978 18.8452C12.6427 18.6991 12.5716 18.3339 12.5716 17.9687C12.5006 17.3113 12.6427 16.6539 12.5006 15.9965C12.2875 15.047 11.9324 14.7548 11.0801 14.8279C10.3699 14.9009 9.87269 15.4122 9.87269 16.2887C9.87269 16.727 9.87269 17.0922 9.87269 17.3844Z"
    fill="#FAFCFC" />
  <path
    d="M132.96 9.05699C133.102 7.377 133.741 5.98919 135.233 5.25876C136.866 4.45529 138.358 4.89354 139.636 6.06223C140.418 6.71962 140.702 6.71962 141.483 6.06223C142.903 4.96659 144.395 4.38224 146.1 5.25876C147.52 5.98919 148.514 7.96135 148.23 9.56829C147.804 12.3439 146.668 14.7543 144.821 16.8726C143.756 18.0413 142.548 18.9908 141.057 19.5021C140.418 19.7213 139.849 19.5752 139.352 19.283C137.221 18.2604 135.73 16.5074 134.594 14.4622C133.741 12.8552 132.96 11.1022 132.96 9.05699Z"
    fill="#FAFCFC" />
  <path
    d="M45.2425 12.7096C44.7453 12.6366 44.8874 12.2714 45.0294 11.9792C45.5976 10.5914 46.1658 9.27662 46.805 7.88881C47.0181 7.37751 47.3022 6.79316 47.5153 6.28186C47.5863 6.06273 47.6573 5.69752 48.0125 5.84361C48.2966 5.98969 48.0835 6.28186 48.0835 6.50099C47.7994 7.66968 47.1602 8.69228 46.734 9.78792C46.3789 10.5914 45.8817 11.3949 45.6687 12.2714C45.5976 12.4905 45.5266 12.7096 45.2425 12.7096Z"
    fill="#76CAD2" />
  <path
    d="M39.7039 12.3442C39.917 12.3442 39.988 12.4903 40.0591 12.5634C40.5562 13.4399 41.0534 14.2434 41.4795 15.1929C41.7636 15.7773 42.1188 16.3616 42.4029 17.019C42.4739 17.2381 42.9 17.4572 42.4739 17.6764C42.1898 17.8225 42.1188 17.5303 41.9767 17.3112C41.1954 15.8503 40.4142 14.3894 39.5619 13.0016C39.5619 12.7095 39.4198 12.4903 39.7039 12.3442Z"
    fill="#76CAD2" />
</svg>
